<svg
    xmlns="http://www.w3.org/2000/svg"
    viewBox="0 0 24 24"
    id="vector">
    <g
        id="group"
        transform="translate(12 12) scale(0.8 0.8) translate(-12 -12)">
        <path
            id="path"
            d="M 10 4 L 4 4 C 2.9 4 2.01 4.9 2.01 6 L 2 18 C 2 19.1 2.9 20 4 20 L 20 20 C 21.1 20 22 19.1 22 18 L 22 8 C 22 6.9 21.1 6 20 6 L 12 6 L 10 4 Z"
            fill="#ffff4c"/>
    </g>
    <g
        id="group_1"
        transform="translate(12 12) scale(0.25 0.25) translate(-12 -12)">
        <path
            id="path_1"
            d="M 2 17 L 22 17 L 22 19 L 2 19 L 2 17 Z M 3.15 12.95 L 4 11.47 L 4.85 12.95 L 6.15 12.2 L 5.3 10.72 L 7 10.72 L 7 9.22 L 5.3 9.22 L 6.15 7.75 L 4.85 7 L 4 8.47 L 3.15 7 L 1.85 7.75 L 2.7 9.22 L 1 9.22 L 1 10.72 L 2.7 10.72 L 1.85 12.2 L 3.15 12.95 Z M 9.85 12.2 L 11.15 12.95 L 12 11.47 L 12.85 12.95 L 14.15 12.2 L 13.3 10.72 L 15 10.72 L 15 9.22 L 13.3 9.22 L 14.15 7.75 L 12.85 7 L 12 8.47 L 11.15 7 L 9.85 7.75 L 10.7 9.22 L 9 9.22 L 9 10.72 L 10.7 10.72 L 9.85 12.2 Z M 23 9.22 L 21.3 9.22 L 22.15 7.75 L 20.85 7 L 20 8.47 L 19.15 7 L 17.85 7.75 L 18.7 9.22 L 17 9.22 L 17 10.72 L 18.7 10.72 L 17.85 12.2 L 19.15 12.95 L 20 11.47 L 20.85 12.95 L 22.15 12.2 L 21.3 10.72 L 23 10.72 L 23 9.22 Z"
            fill="#333333"/>
    </g>
</svg>
